<svg xmlns="http://www.w3.org/2000/svg" xmlns:xlink="http://www.w3.org/1999/xlink" width="32" height="32" viewBox="0 0 32 32">
  <defs>
    <clipPath id="clip-Mesa_de_trabajo_2">
      <rect width="32" height="32"/>
    </clipPath>
  </defs>
  <g id="Mesa_de_trabajo_2" data-name="Mesa de trabajo – 2" clip-path="url(#clip-Mesa_de_trabajo_2)">
    <g id="Unión_51" data-name="Unión 51" transform="translate(6355 8585)" fill="#0a0a24">
      <path d="M -6349.4990234375 -8566.1279296875 L -6349.90869140625 -8566.712890625 L -6353.4091796875 -8571.712890625 L -6353.9599609375 -8572.5 L -6352.99951171875 -8572.5 L -6351.50048828125 -8572.5 L -6351.50048828125 -8576.001953125 C -6351.50048828125 -8579.033203125 -6349.033203125 -8581.4990234375 -6346.0009765625 -8581.4990234375 L -6342.5009765625 -8581.4990234375 L -6342.5009765625 -8583 L -6342.5009765625 -8583.9599609375 L -6341.71435546875 -8583.41015625 L -6336.71240234375 -8579.91015625 L -6336.126953125 -8579.5 L -6336.71240234375 -8579.08984375 L -6341.71435546875 -8575.58984375 L -6342.5009765625 -8575.0400390625 L -6342.5009765625 -8576 L -6342.5009765625 -8577.5009765625 L -6345.00146484375 -8577.5009765625 C -6346.38037109375 -8577.5009765625 -6347.501953125 -8576.3779296875 -6347.501953125 -8574.998046875 L -6347.501953125 -8572.5 L -6346.0009765625 -8572.5 L -6345.041015625 -8572.5 L -6345.59130859375 -8571.7138671875 L -6349.08935546875 -8566.7138671875 L -6349.4990234375 -8566.1279296875 Z" stroke="none"/>
      <path d="M -6349.4990234375 -8567 L -6346.0009765625 -8572 L -6352.99951171875 -8572 L -6349.4990234375 -8567 M -6348.001953125 -8572.001953125 L -6348.001953125 -8574.998046875 C -6348.001953125 -8576.65234375 -6346.65576171875 -8578.0009765625 -6345.00146484375 -8578.0009765625 L -6342.0009765625 -8578.0009765625 L -6342.0009765625 -8576 L -6336.9990234375 -8579.5 L -6342.0009765625 -8583 L -6342.0009765625 -8580.9990234375 L -6346.0009765625 -8580.9990234375 C -6348.755859375 -8580.9990234375 -6351.00048828125 -8578.7568359375 -6351.00048828125 -8576.001953125 L -6351.00048828125 -8572.001953125 L -6348.001953125 -8572.001953125 M -6349.49853515625 -8565.255859375 L -6354.92041015625 -8573 L -6352.00048828125 -8573 L -6352.00048828125 -8576.001953125 C -6352.00048828125 -8579.30859375 -6349.30908203125 -8581.9990234375 -6346.0009765625 -8581.9990234375 L -6343.0009765625 -8581.9990234375 L -6343.0009765625 -8584.919921875 L -6335.2548828125 -8579.5 L -6343.0009765625 -8574.080078125 L -6343.0009765625 -8577.0009765625 L -6345.00146484375 -8577.0009765625 C -6346.1044921875 -8577.0009765625 -6347.001953125 -8576.1025390625 -6347.001953125 -8574.998046875 L -6347.001953125 -8573 L -6344.0810546875 -8573 L -6349.49853515625 -8565.255859375 Z" stroke="none" fill="#fff"/>
    </g>
  </g>
</svg>
